<?xml version="1.0" encoding="utf-8"?><!-- Uploaded to: SVG Repo, www.svgrepo.com, Generator: SVG Repo Mixer Tools -->
<svg width="800px" height="800px" viewBox="0 -0.5 25 25" fill="none" xmlns="http://www.w3.org/2000/svg">
<path d="M7.74117 8.95822C7.67779 8.54888 7.29457 8.26843 6.88524 8.33181C6.4759 8.3952 6.19545 8.77841 6.25883 9.18774L7.74117 8.95822ZM8.15 16.5H8.9C8.9 16.4616 8.89705 16.4232 8.89117 16.3852L8.15 16.5ZM10.5 18.75C10.9142 18.75 11.25 18.4142 11.25 18C11.25 17.5858 10.9142 17.25 10.5 17.25V18.75ZM6.60563 8.43504C6.2533 8.65284 6.14425 9.11503 6.36206 9.46735C6.57986 9.81968 7.04204 9.92873 7.39437 9.71093L6.60563 8.43504ZM11.662 6.19098L11.337 5.51504C11.3132 5.52648 11.2901 5.53916 11.2676 5.55304L11.662 6.19098ZM13.338 6.19098L13.7324 5.55304C13.7099 5.53916 13.6868 5.52648 13.663 5.51504L13.338 6.19098ZM17.6056 9.71093C17.958 9.92873 18.4201 9.81968 18.6379 9.46735C18.8557 9.11503 18.7467 8.65284 18.3944 8.43504L17.6056 9.71093ZM7.39428 9.71098C7.74664 9.49322 7.85575 9.03106 7.638 8.6787C7.42024 8.32634 6.95807 8.21723 6.60572 8.43498L7.39428 9.71098ZM5.10572 9.36198C4.75336 9.57974 4.64425 10.0419 4.862 10.3943C5.07976 10.7466 5.54193 10.8557 5.89428 10.638L5.10572 9.36198ZM18.7412 9.18774C18.8045 8.77841 18.5241 8.3952 18.1148 8.33181C17.7054 8.26843 17.3222 8.54888 17.2588 8.95822L18.7412 9.18774ZM16.85 16.5L16.1088 16.3852C16.103 16.4232 16.1 16.4616 16.1 16.5H16.85ZM14.5 17.25C14.0858 17.25 13.75 17.5858 13.75 18C13.75 18.4142 14.0858 18.75 14.5 18.75V17.25ZM18.3943 8.43498C18.0419 8.21723 17.5798 8.32634 17.362 8.6787C17.1442 9.03106 17.2534 9.49322 17.6057 9.71098L18.3943 8.43498ZM19.1057 10.638C19.4581 10.8557 19.9202 10.7466 20.138 10.3943C20.3558 10.0419 20.2466 9.57974 19.8943 9.36198L19.1057 10.638ZM9.75 18C9.75 18.4142 10.0858 18.75 10.5 18.75C10.9142 18.75 11.25 18.4142 11.25 18H9.75ZM13.75 18C13.75 18.4142 14.0858 18.75 14.5 18.75C14.9142 18.75 15.25 18.4142 15.25 18H13.75ZM10.5 17.25C10.0858 17.25 9.75 17.5858 9.75 18C9.75 18.4142 10.0858 18.75 10.5 18.75V17.25ZM14.5 18.75C14.9142 18.75 15.25 18.4142 15.25 18C15.25 17.5858 14.9142 17.25 14.5 17.25V18.75ZM6.25883 9.18774L7.40883 16.6147L8.89117 16.3852L7.74117 8.95822L6.25883 9.18774ZM7.4 16.5C7.4 17.374 7.72449 18.0279 8.35016 18.3993C8.89002 18.7198 9.5386 18.75 10 18.75V17.25C9.5494 17.25 9.27298 17.2027 9.11584 17.1094C9.0563 17.0741 9.01463 17.0321 8.98117 16.9654C8.94392 16.8912 8.9 16.7511 8.9 16.5H7.4ZM10 18.75H10.5V17.25H10V18.75ZM7.39437 9.71093L12.0564 6.82893L11.2676 5.55304L6.60563 8.43504L7.39437 9.71093ZM11.987 6.86692C12.3112 6.71103 12.6888 6.71103 13.013 6.86692L13.663 5.51504C12.9279 5.16165 12.0721 5.16165 11.337 5.51504L11.987 6.86692ZM12.9436 6.82893L17.6056 9.71093L18.3944 8.43504L13.7324 5.55304L12.9436 6.82893ZM6.60572 8.43498L5.10572 9.36198L5.89428 10.638L7.39428 9.71098L6.60572 8.43498ZM17.2588 8.95822L16.1088 16.3852L17.5912 16.6147L18.7412 9.18774L17.2588 8.95822ZM16.1 16.5C16.1 16.7511 16.0561 16.8912 16.0188 16.9654C15.9854 17.0321 15.9437 17.0741 15.8842 17.1094C15.727 17.2027 15.4506 17.25 15 17.25V18.75C15.4614 18.75 16.11 18.7198 16.6498 18.3993C17.2755 18.0279 17.6 17.374 17.6 16.5H16.1ZM15 17.25H14.5V18.75H15V17.25ZM17.6057 9.71098L19.1057 10.638L19.8943 9.36198L18.3943 8.43498L17.6057 9.71098ZM11.25 18V15H9.75V18H11.25ZM11.25 15C11.25 14.8619 11.3619 14.75 11.5 14.75V13.25C10.5335 13.25 9.75 14.0335 9.75 15H11.25ZM11.5 14.75H13.5V13.25H11.5V14.75ZM13.5 14.75C13.6381 14.75 13.75 14.8619 13.75 15H15.25C15.25 14.0335 14.4665 13.25 13.5 13.25V14.75ZM13.75 15V18H15.25V15H13.75ZM10.5 18.75H14.5V17.25H10.5V18.75Z" fill="#000000"/>
</svg>