<svg xmlns="http://www.w3.org/2000/svg" version="1.1" xmlns:xlink="http://www.w3.org/1999/xlink" xmlns:svgjs="http://svgjs.dev/svgjs" width="100%" height="100%" viewBox="0 0 1000 600"><rect width="1000" height="600" x="0" y="0" fill="#ffffff"/><g><circle r="166.66666666666666" cx="381.99514261881507" cy="404.217457311917" fill="#d62976" transform="matrix(0.5805082611871214,0,0,0.5805082611871215,0,65.34843643431277)"/><path d="M362.25831922413397 445.6648303076324L361.27147714088545 463.4279878061057L425.416212552039 463.4279878061057L423.44252838554195 479.21746113808194L339.5609513094181 479.21746113808194L341.53463547591514 459.48061947311163L341.53463547591514 351.9148323990234L338.5741092261696 331.19114865080456L362.25831922413397 329.2174644843075L362.25831922413397 445.6648303076324Z " fill="#ffffff" transform="matrix(0.5805082611871214,0,0,0.5805082611871215,0,65.34843643431277)"/><path d="M651.2024758879814 329.2174718068288L651.2024758879814 442.9877878949191Q651.2024758879814 449.03453537793956 651.8884514427779 453.0995757026592Q652.5744269975743 457.16461602737877 653.8955651031082 459.67985972829905Q655.216703208642 462.19510342921933 657.1984103669428 463.26217651445825Q659.1547110232142 464.3038430976676 661.7207677281934 464.3038430976676L661.7207677281934 464.3038430976676Q663.7278813885238 464.3038430976676 665.379304020441 464.07518457940216Q667.0307266523583 463.8465260611367 668.2248322477448 463.4908350327237L668.2248322477448 463.4908350327237Q669.5967833573376 463.10973750228123 670.689262944606 462.6524204657503L670.689262944606 462.6524204657503L676.9900754479214 473.7296553506112Q676.2532868890661 474.46644390946665 674.6526772612077 475.3302649784696Q673.0520676333493 476.1940860474725 670.8671084588126 477.0325006144459Q668.6821492842757 477.8455086793898 665.8874340610311 478.4044517240388Q663.0927188377863 478.93798826665824 659.8914995820695 478.93798826665824L659.8914995820695 478.93798826665824Q651.6597929245123 478.93798826665824 646.5276795145538 475.91461452514807Q641.4209726066248 472.9166472856673 638.5754443793211 467.6829078675908Q635.7553226540468 462.4745749515438 634.789875576926 455.5640063995204Q633.8244284998051 448.67884434952657 633.8244284998051 440.8028287203823L633.8244284998051 440.8028287203823L633.8244284998051 349.33942141419095L631.9951603536812 331.04673995295263L651.2024758879814 329.2174718068288ZM734.3325505284976 478.93798826665824L734.3325505284976 478.93798826665824Q724.1953562187281 478.93798826665824 715.8112105489937 474.97457395005665Q707.452471381289 470.9857531314255 701.4057238982687 463.9989650733137Q695.3843829172778 456.9867705131723 692.0307246493841 447.4339257500812Q688.7024728835198 437.8810809869901 688.7024728835198 426.80384610212917L688.7024728835198 426.80384610212917Q688.7024728835198 415.75201771929767 691.9036921392366 406.2753924622951Q695.1049113949533 396.7987672052925 701.0500328698557 389.9136051552986Q706.9951543447581 383.0030366032753 715.4555195205809 379.1158417927621Q723.9158846964035 375.228646982249 734.3325505284976 375.228646982249L734.3325505284976 375.228646982249Q744.4951513402965 375.228646982249 752.9047035120603 379.1158417927621Q761.314255683824 383.0030366032753 767.3610031668444 389.9136051552986Q773.4077506498649 396.7987672052925 776.786815419788 406.2753924622951Q780.1658801897112 415.75201771929767 780.1658801897112 426.80384610212917L780.1658801897112 426.80384610212917Q780.1658801897112 437.8810809869901 776.9138479299355 447.4339257500812Q773.6618156701599 456.9867705131723 767.7166941952574 463.9989650733137Q761.771572720355 470.9857531314255 753.2858010425028 474.97457395005665Q744.774622862621 478.93798826665824 734.3325505284976 478.93798826665824ZM762.7878328015348 429.2682767989904L762.7878328015348 429.2682767989904Q762.7878328015348 421.8749847084066 761.1872231736764 414.7357576381178Q759.5866135458183 407.59653056782895 756.1059227677771 401.98169361930997Q752.6252319897359 396.3414501687615 747.1374275513643 392.88616589274983Q741.6496231129928 389.4054751147087 733.9768595000845 389.4054751147087L733.9768595000845 389.4054751147087Q726.6597869155893 389.4054751147087 721.3498279914243 392.4288488562189Q716.0398690672592 395.4268160956996 712.6608042973361 400.4573034975401Q709.2817395274129 405.4877908993807 707.6811298995545 411.8902294108141Q706.0805202716962 418.29266792224746 706.0805202716962 425.0762039641233L706.0805202716962 425.0762039641233Q706.0805202716962 432.4694960547071 707.6811298995545 439.60872312499595Q709.2817395274129 446.7479501952848 712.711617301395 452.33738064177425Q716.1414950753773 457.9014045862342 721.5784865096897 461.3312823602164Q727.0154779440023 464.7611601341986 734.7136480589401 464.7611601341986L734.7136480589401 464.7611601341986Q741.9290946353173 464.7611601341986 747.2390535594824 461.73778639268835Q752.5490124836473 458.73981915320763 756.0297032616885 453.7347382533966Q759.4849875377002 448.7550638556151 761.1364101696175 442.35262534418166Q762.7878328015348 435.9501868327483 762.7878328015348 429.2682767989904ZM865.2268489844693 376.77844360604837L881.2329452630528 374.9491754599245L847.289858551644 479.21745978898275L828.4636405477862 477.3881916428589L795.8162854398817 376.77844360604837L812.5337637752913 374.9491754599245L834.4087620226886 442.5304708583882L839.2614039103227 463.77030655504814L843.8345742756322 442.5304708583882L865.2268489844693 376.77844360604837ZM972.7979785773622 386.7377924016114L963.7278573528314 397.07823872761696Q960.1709470687018 393.87701947190027 955.2674921770086 391.86990581156994Q950.3894437873452 389.8627921512396 945.1557043692688 389.8627921512396L945.1557043692688 389.8627921512396Q937.4829407563603 389.8627921512396 932.0967623261068 392.7337268805729Q926.6851773938239 395.6300681119356 923.3569256279599 400.5589295056581Q920.0032673600662 405.4877908993807 918.4534707362667 412.042668422991Q916.9036741124675 418.5721394445719 916.9036741124675 425.81299252297873L916.9036741124675 425.81299252297873Q916.9036741124675 433.30791062168055 918.3264382261192 440.1168531655859Q919.7492023397712 446.92579570949124 923.1282671096943 452.13412862553827Q926.5073318796175 457.36786804361475 932.1221688281365 460.4166482871545Q937.762412278685 463.4908350327237 946.1719644504486 463.4908350327237L946.1719644504486 463.4908350327237Q953.2095655126194 463.4908350327237 958.1130204043126 461.83941240080634Q962.9910687939761 460.187989768889 965.6587515070734 458.3587216227652L965.6587515070734 458.3587216227652L972.2390355327133 471.26522465374995Q967.1069221227546 474.7459154317911 960.2979795788493 476.8292485982099Q953.4890370349439 478.93798826665824 944.9016393489736 478.93798826665824L944.9016393489736 478.93798826665824Q933.4687134356999 478.93798826665824 924.8559092477002 474.4156309054077Q916.26851156173 469.89327354415707 910.5520486050931 462.3475424413963Q904.835585648456 454.8018113386355 901.9392444170934 444.96949505321993Q899.06830968776 435.13717876780436 899.06830968776 424.61888692759237L899.06830968776 424.61888692759237Q899.06830968776 415.09144866653077 901.8630249110048 406.1737664541771Q904.6577401342496 397.25608424182343 910.3742030908865 390.39632869385906Q916.0906660475235 383.53657314589475 924.8050962436411 379.3953133150866Q933.5449329417883 375.228646982249 945.3589563855047 375.228646982249L945.3589563855047 375.228646982249Q953.7685085572683 375.228646982249 960.3996055869674 377.8201101892578Q967.0307026166662 380.43697989829604 972.7979785773622 386.7377924016114L972.7979785773622 386.7377924016114ZM1055.4707361813475 453.7855512574556L1055.4707361813475 376.77844360604837L1072.8487835695237 374.9491754599245L1072.8487835695237 477.3881916428589L1055.4707361813475 477.3881916428589L1055.4707361813475 462.4745749515438L1049.881305734858 472.25607823290034Q1048.2552896049701 473.3739643221983 1045.9941109243446 474.5426634155551Q1043.758338745749 475.73676901094154 1040.938217020475 476.7022160880624Q1038.092688793171 477.6676631651834 1034.7136240232476 478.3028257159208Q1031.3345592533246 478.93798826665824 1027.574396952959 478.93798826665824L1027.574396952959 478.93798826665824Q1020.2573243684636 478.93798826665824 1014.9981784483576 476.29571205559046Q1009.7390325282516 473.6280293424933 1006.3599677583285 468.8770134629772Q1002.9809029884053 464.1259975834611 1001.329480356488 457.59652656188024Q999.6780577245705 451.04164903826984 999.6780577245705 443.36888542536155L999.6780577245705 443.36888542536155L999.6780577245705 376.77844360604837L1017.0561051127469 374.9491754599245L1017.0561051127469 443.36888542536155Q1017.0561051127469 453.25201471483615 1021.0449259313781 458.76522565523715Q1025.0083402479795 464.3038430976676 1033.5195184278614 464.3038430976676L1033.5195184278614 464.3038430976676Q1036.6191116754603 464.3038430976676 1039.6424854169704 463.3129895185172Q1042.6658591584805 462.2967294373373 1045.5113873857845 460.74693281353797Q1048.3315091110585 459.1971361897386 1050.8467528119786 457.36786804361475Q1053.3619965128992 455.53859989749094 1055.4707361813475 453.7855512574556L1055.4707361813475 453.7855512574556ZM1126.812193880177 329.2174718068288L1126.812193880177 442.9877878949191Q1126.812193880177 449.03453537793956 1127.498169434973 453.0995757026592Q1128.1841449897693 457.16461602737877 1129.5052830953032 459.67985972829905Q1130.826421200837 462.19510342921933 1132.8081283591382 463.26217651445825Q1134.7644290154094 464.3038430976676 1137.3304857203884 464.3038430976676L1137.3304857203884 464.3038430976676Q1139.337599380719 464.3038430976676 1140.9890220126363 464.07518457940216Q1142.6404446445536 463.8465260611367 1143.8345502399402 463.4908350327237L1143.8345502399402 463.4908350327237Q1145.206501349533 463.10973750228123 1146.2989809368014 462.6524204657503L1146.2989809368014 462.6524204657503L1152.5997934401166 473.7296553506112Q1151.863004881261 474.46644390946665 1150.2623952534027 475.3302649784696Q1148.6617856255443 476.1940860474725 1146.4768264510076 477.0325006144459Q1144.2918672764708 477.8455086793898 1141.4971520532263 478.4044517240388Q1138.7024368299813 478.93798826665824 1135.501217574265 478.93798826665824L1135.501217574265 478.93798826665824Q1127.2695109167075 478.93798826665824 1122.137397506749 475.91461452514807Q1117.03069059882 472.9166472856673 1114.185162371516 467.6829078675908Q1111.365040646242 462.4745749515438 1110.399593569121 455.5640063995204Q1109.4341464920003 448.67884434952657 1109.4341464920003 440.8028287203823L1109.4341464920003 440.8028287203823L1109.4341464920003 349.33942141419095L1107.6048783458764 331.04673995295263L1126.812193880177 329.2174718068288ZM1237.482916720668 460.92477832774443L1239.312184866792 477.3881916428589L1220.104869332492 477.3881916428589L1220.104869332492 462.5762009596618L1211.5174716465217 472.8150212775493Q1209.9422685206928 474.00912687293567 1207.9351548603622 475.1016064602041Q1205.928041200032 476.1940860474725 1203.8701145356426 477.05790711647546Q1201.8121878712536 477.94713468750786 1199.7542612068642 478.4298582260683Q1197.6963345424747 478.93798826665824 1195.968692404469 478.93798826665824L1195.968692404469 478.93798826665824Q1189.108936856505 478.93798826665824 1182.8335308552187 476.80384209618046Q1176.558124853933 474.6442894236732 1171.8579219784756 470.47762309083555Q1167.1577191030187 466.31095675799793 1164.3630038797742 460.13717676483Q1161.5682886565291 453.9633967716621 1161.5682886565291 445.93494213034086L1161.5682886565291 445.93494213034086Q1161.5682886565291 437.42376395045915 1164.9981664305114 431.14835794917326Q1168.4280442044937 424.8983584499168 1173.7888161327178 420.7316921170792Q1179.1241815589124 416.5650257842416 1185.704465584552 414.5070991198523Q1192.3101561122212 412.449172455463 1198.6109686155369 412.449172455463L1198.6109686155369 412.449172455463Q1203.8193015315837 412.449172455463 1207.808122350215 413.0081155001119Q1211.7715366668167 413.5416520427314 1214.5154388860024 414.2784406015868L1214.5154388860024 414.2784406015868Q1217.716658141719 415.09144866653077 1220.104869332492 416.10770874771066L1220.104869332492 416.10770874771066L1220.104869332492 412.90648949199397Q1220.104869332492 407.5203110617405 1219.4697067817542 403.2012057167259Q1218.834544231017 398.9075068737408 1216.8528370727163 395.93494613628957Q1214.8965364164446 392.96238539883836 1211.1871871201379 391.41258877503896Q1207.4778378238316 389.8627921512396 1201.3548708347225 389.8627921512396L1201.3548708347225 389.8627921512396Q1196.4260094410001 389.8627921512396 1191.8528390756906 390.5487677060361Q1187.279668710381 391.2347432608325 1183.6973519242215 392.0477513257764L1183.6973519242215 392.0477513257764Q1179.5052790893546 393.06401140695635 1175.9229623031956 394.1564909942247L1175.9229623031956 394.1564909942247L1169.3426782775555 381.91055701600686Q1173.3569055982161 380.08128886988305 1178.4890190081746 378.6077117521722L1178.4890190081746 378.6077117521722Q1182.8843438592776 377.3373866506973 1188.9056848402688 376.2703135654584Q1194.952432323289 375.228646982249 1202.2695049077847 375.228646982249L1202.2695049077847 375.228646982249Q1212.7877967479967 375.228646982249 1219.6475522959608 378.0487687075232Q1226.507307843925 380.89429693482697 1230.4453156584973 386.02641034478546Q1234.3833234730696 391.1331172527145 1235.9331200968686 398.32315732706235Q1237.482916720668 405.4877908993807 1237.482916720668 414.2784406015868L1237.482916720668 414.2784406015868L1237.482916720668 460.92477832774443ZM1220.104869332492 452.33738064177425L1220.104869332492 428.633114248253Q1217.5388126275125 428.27742321984 1214.6170648941202 427.89632568939754L1214.6170648941202 427.89632568939754Q1212.152634197259 427.6422606691026 1208.9514149415422 427.3627891467781Q1205.7501956858255 427.0833176244536 1202.2695049077847 427.0833176244536L1202.2695049077847 427.0833176244536Q1197.1373914978258 427.0833176244536 1192.8945056589 428.0995777056335Q1188.6516198199738 429.0904312847839 1185.5266200703454 431.3262034633797Q1182.427026822747 433.587382144005 1180.6739781827114 437.1442924281347Q1178.9463360447057 440.7012027122644 1178.9463360447057 445.83331612222287L1178.9463360447057 445.83331612222287Q1178.9463360447057 449.94916945100147 1180.3182871542986 453.3282342209246Q1181.6902382638914 456.70729899084785 1184.0784494546642 459.1971361897386Q1186.4412541434076 461.66156688659987 1189.6932864031833 462.98270499213373Q1192.945318662959 464.3038430976676 1196.6800744612951 464.3038430976676L1196.6800744612951 464.3038430976676Q1198.4331231013302 464.3038430976676 1200.3894237576014 463.7957130570777Q1202.3711309159025 463.3129895185172 1204.3274315721737 462.4745749515438Q1206.283732228445 461.66156688659987 1208.265439386746 460.5690872993315Q1210.2217400430172 459.45120121003356 1211.9747886830523 458.3587216227652L1211.9747886830523 458.3587216227652Q1216.0906420118313 455.7164454116974 1220.104869332492 452.33738064177425L1220.104869332492 452.33738064177425ZM1286.8731566660117 391.41258877503896L1286.8731566660117 442.9877878949191Q1286.8731566660117 449.03453537793956 1287.559132220808 453.0995757026592Q1288.2451077756045 457.16461602737877 1289.5662458811385 459.67985972829905Q1290.8873839866724 462.19510342921933 1292.869091144973 463.26217651445825Q1294.8253918012442 464.3038430976676 1297.3914485062237 464.3038430976676L1297.3914485062237 464.3038430976676Q1299.3985621665538 464.3038430976676 1301.049984798471 464.07518457940216Q1302.7014074303888 463.8465260611367 1303.895513025775 463.4908350327237L1303.895513025775 463.4908350327237Q1305.2674641353678 463.10973750228123 1306.3599437226362 462.6524204657503L1306.3599437226362 462.6524204657503L1312.6607562259514 473.7296553506112Q1311.9239676670963 474.46644390946665 1310.323358039238 475.3302649784696Q1308.7227484113796 476.1940860474725 1306.5377892368429 477.0325006144459Q1304.352830062306 477.8455086793898 1301.558114839061 478.4044517240388Q1298.7633996158165 478.93798826665824 1295.5621803600998 478.93798826665824L1295.5621803600998 478.93798826665824Q1287.3304737025428 478.93798826665824 1282.1983602925839 475.91461452514807Q1277.0916533846548 472.9166472856673 1274.2461251573513 467.6829078675908Q1271.4260034320773 462.4745749515438 1270.4605563549562 455.5640063995204Q1269.4951092778351 448.67884434952657 1269.4951092778351 440.8028287203823L1269.4951092778351 440.8028287203823L1269.4951092778351 391.41258877503896L1255.7755981819064 391.41258877503896L1255.7755981819064 376.77844360604837L1269.4951092778351 376.77844360604837L1269.4951092778351 357.6727540798662L1286.4158396294806 347.51015326806714L1286.4158396294806 376.77844360604837L1317.513398113586 376.77844360604837L1315.684129967462 391.41258877503896L1286.8731566660117 391.41258877503896ZM1379.1495720371468 478.93798826665824L1379.1495720371468 478.93798826665824Q1369.0123777273775 478.93798826665824 1360.6282320576433 474.97457395005665Q1352.2694928899386 470.9857531314255 1346.222745406918 463.9989650733137Q1340.2014044259272 456.9867705131723 1336.8477461580333 447.4339257500812Q1333.5194943921692 437.8810809869901 1333.5194943921692 426.80384610212917L1333.5194943921692 426.80384610212917Q1333.5194943921692 415.75201771929767 1336.720713647886 406.2753924622951Q1339.9219329036027 396.7987672052925 1345.8670543785051 389.9136051552986Q1351.8121758534076 383.0030366032753 1360.27254102923 379.1158417927621Q1368.732906205053 375.228646982249 1379.1495720371468 375.228646982249L1379.1495720371468 375.228646982249Q1389.312172848946 375.228646982249 1397.7217250207095 379.1158417927621Q1406.1312771924731 383.0030366032753 1412.1780246754938 389.9136051552986Q1418.224772158514 396.7987672052925 1421.6038369284374 406.2753924622951Q1424.9829016983608 415.75201771929767 1424.9829016983608 426.80384610212917L1424.9829016983608 426.80384610212917Q1424.9829016983608 437.8810809869901 1421.7308694385847 447.4339257500812Q1418.478837178809 456.9867705131723 1412.5337157039066 463.9989650733137Q1406.5885942290042 470.9857531314255 1398.1028225511523 474.97457395005665Q1389.5916443712704 478.93798826665824 1379.1495720371468 478.93798826665824ZM1407.6048543101842 429.2682767989904L1407.6048543101842 429.2682767989904Q1407.6048543101842 421.8749847084066 1406.0042446823259 414.7357576381178Q1404.4036350544675 407.59653056782895 1400.9229442764263 401.98169361930997Q1397.442253498385 396.3414501687615 1391.9544490600138 392.88616589274983Q1386.4666446216424 389.4054751147087 1378.793881008734 389.4054751147087L1378.793881008734 389.4054751147087Q1371.4768084242387 389.4054751147087 1366.1668495000736 392.4288488562189Q1360.856890575909 395.4268160956996 1357.4778258059855 400.4573034975401Q1354.0987610360621 405.4877908993807 1352.4981514082037 411.8902294108141Q1350.8975417803454 418.29266792224746 1350.8975417803454 425.0762039641233L1350.8975417803454 425.0762039641233Q1350.8975417803454 432.4694960547071 1352.4981514082037 439.60872312499595Q1354.0987610360621 446.7479501952848 1357.5286388100444 452.33738064177425Q1360.9585165840267 457.9014045862342 1366.3955080183391 461.3312823602164Q1371.8324994526515 464.7611601341986 1379.5306695675895 464.7611601341986L1379.5306695675895 464.7611601341986Q1386.746116143967 464.7611601341986 1392.0560750681316 461.73778639268835Q1397.3660339922967 458.73981915320763 1400.846724770338 453.7347382533966Q1404.3020090463497 448.7550638556151 1405.953431678267 442.35262534418166Q1407.6048543101842 435.9501868327483 1407.6048543101842 429.2682767989904ZM1495.5113513322462 390.6758002161835L1495.5113513322462 390.6758002161835Q1491.8528150399984 390.6758002161835 1488.270498253839 392.1493773338944Q1484.7135879697094 393.59754794957576 1481.4107427058748 396.0873851484665Q1478.1333039440697 398.55181584532784 1475.186149708648 401.829254607133Q1472.2644019752556 405.1320998709677 1469.7999712783944 408.79063616321537L1469.7999712783944 408.79063616321537L1469.7999712783944 477.3881916428589L1452.4219238902178 477.3881916428589L1452.4219238902178 376.77844360604837L1469.7999712783944 374.9491754599245L1469.7999712783944 395.5284421038176L1478.9463120090136 379.5223458252341Q1480.1404176043998 378.78555726637865 1481.9188727464648 378.02336220549375Q1483.6973278885293 377.2357606425793 1485.9839130711844 376.65141109590087Q1488.270498253839 376.04165504719293 1490.8873679628773 375.635151014721Q1493.4788311698862 375.228646982249 1496.222733389072 375.228646982249L1496.222733389072 375.228646982249Q1500.3385867178504 375.228646982249 1503.1333019410954 375.9654355411044Q1505.92801716434 376.6768175979304 1507.2999682739328 377.3373866506973L1507.2999682739328 377.3373866506973L1506.385334200871 392.5050683623074Q1505.0133830912782 392.0477513257764 1502.2694808720921 391.36177577098Q1499.5255786529065 390.6758002161835 1495.5113513322462 390.6758002161835Z " fill="#d62976" transform="matrix(0.5805082611871214,0,0,0.5805082611871215,0,65.34843643431277)"/></g></svg>